<svg width="19" height="19" fill="none" xmlns="http://www.w3.org/2000/svg"><path d="M14.618 9.744C14.618 6.274 10.961 4 7.31 4 3.643 4 0 6.285 0 9.744c0 1.309.573 2.588 1.614 3.604.04.038.055.097.04.153-.327 1.198-1.101 2.28-1.42 2.69a.41.41 0 0 0-.042.44.41.41 0 0 0 .369.226h.01c1.555-.039 3.357-.478 4.471-1.573a.159.159 0 0 1 .15-.04 9.188 9.188 0 0 0 2.117.244c3.665 0 7.31-2.284 7.31-5.744ZM5.32 14.702a.713.713 0 0 0-.668.185c-1.114 1.095-2.933 1.344-3.794 1.4.393-.543 1.033-1.54 1.333-2.639a.714.714 0 0 0-.188-.699C1.057 12.027.557 10.92.557 9.744c0-2.86 3.029-5.187 6.752-5.187 3.724 0 6.753 2.327 6.753 5.187 0 2.86-3.03 5.188-6.753 5.188a8.633 8.633 0 0 1-1.989-.23Z" fill="#674D40"/><path d="M16.409 14.369C18.03 13.549 19 12.15 19 10.629c0-2.15-1.943-3.986-4.62-4.367a.278.278 0 0 0-.08.55c2.401.343 4.143 1.948 4.143 3.818 0 1.306-.854 2.518-2.286 3.242a.688.688 0 0 0-.362.756c.136.638.425 1.228.656 1.629-1.644-.274-2.267-1.063-2.464-1.404a.687.687 0 0 0-.594-.341h-.023c-.309 0-.618-.022-.918-.064a.279.279 0 0 0-.078.551c.326.046.662.07.996.07h.023c.047 0 .09.023.112.062.754 1.307 2.486 1.64 3.196 1.723a.401.401 0 0 0 .39-.187.4.4 0 0 0-.002-.432c-.214-.333-.596-1-.75-1.723a.13.13 0 0 1 .07-.143ZM2.978 8.749a.966.966 0 0 0 0 1.929.966.966 0 0 0 0-1.93Zm0 1.372a.408.408 0 1 1 .001-.817.408.408 0 0 1 0 .817ZM5.73 8.749a.966.966 0 0 0 0 1.929.966.966 0 0 0 0-1.93Zm0 1.372a.408.408 0 1 1 0-.817.408.408 0 0 1 0 .817ZM8.482 8.749a.966.966 0 0 0 0 1.929.966.966 0 0 0 0-1.93Zm0 1.372a.408.408 0 1 1 0-.817.408.408 0 0 1 0 .817ZM11.233 8.749a.966.966 0 0 0 0 1.929.966.966 0 0 0 0-1.93Zm0 1.372a.408.408 0 1 1 .001-.817.408.408 0 0 1 0 .817Z" fill="#674D40"/></svg>