<svg width="19" height="19" fill="none" xmlns="http://www.w3.org/2000/svg"><path d="M13.745 5.718a.271.271 0 0 1-.271-.271 3.975 3.975 0 0 0-7.947 0 .271.271 0 0 1-.543 0 4.517 4.517 0 0 1 9.033 0 .271.271 0 0 1-.272.271Z" fill="#674D40"/><path d="M14.538 11.86a.271.271 0 1 1-.004-.542 3.946 3.946 0 0 0 3.923-3.895 3.942 3.942 0 0 0-3.97-3.903c-.402-.001-.8.058-1.184.175a.272.272 0 0 1-.159-.52c.435-.132.887-.199 1.342-.198A4.486 4.486 0 0 1 19 7.423a4.491 4.491 0 0 1-4.46 4.438h-.002ZM4.462 11.86H4.46A4.491 4.491 0 0 1 0 7.423a4.485 4.485 0 0 1 4.514-4.446c.454-.001.907.066 1.342.199a.271.271 0 1 1-.16.519 4.031 4.031 0 0 0-1.182-.175A3.942 3.942 0 0 0 .543 7.423a3.946 3.946 0 0 0 3.923 3.895.272.272 0 1 1-.004.543Z" fill="#674D40"/><path d="M14.538 18.613H4.462a.271.271 0 0 1-.271-.271V11.59a.271.271 0 0 1 .543 0v6.48h9.532v-6.48a.272.272 0 0 1 .543 0v6.752a.271.271 0 0 1-.271.271Z" fill="#674D40"/><path d="M16.427 15.983H6.35a.271.271 0 0 1 0-.543h10.076a.271.271 0 1 1 0 .543Z" fill="#674D40"/></svg>