<svg width="19" height="19" fill="none" xmlns="http://www.w3.org/2000/svg"><g clip-path="url('#clip0_6501_88')"><g clip-path="url('#clip1_6501_88')" fill="#674D40"><path d="M9.5 0C4.262 0 0 4.262 0 9.5S4.262 19 9.5 19 19 14.738 19 9.5 14.738 0 9.5 0Zm0 18.367C4.611 18.367.633 14.389.633 9.5.633 4.611 4.611.633 9.5.633c4.889 0 8.867 3.978 8.867 8.867 0 4.889-3.978 8.867-8.867 8.867Z"/><path d="M9.817 8.24V5.028a.317.317 0 1 0-.634 0V8.24c-.443.115-.79.462-.905.905H6.017a.317.317 0 1 0 0 .633h2.261c.142.545.634.95 1.222.95.698 0 1.267-.568 1.267-1.266 0-.589-.406-1.08-.95-1.222ZM9.5 10.095A.634.634 0 1 1 9.5 8.827a.634.634 0 0 1-.001 1.268ZM9.5 3.128a.317.317 0 0 0 .317-.316v-.317a.317.317 0 1 0-.634 0v.317c0 .175.142.316.317.316ZM9.5 15.795a.317.317 0 0 0-.317.317v.317a.317.317 0 1 0 .634 0v-.317a.317.317 0 0 0-.317-.317ZM16.467 9.145h-.317a.317.317 0 1 0 0 .633h.317a.317.317 0 1 0 0-.633ZM2.85 9.145h-.317a.317.317 0 1 0 0 .633h.317a.317.317 0 1 0 0-.633ZM14.202 4.311l-.224.224a.316.316 0 1 0 .448.448l.224-.224a.316.316 0 1 0-.448-.448ZM4.574 13.94l-.224.224a.316.316 0 1 0 .448.448l.224-.224a.316.316 0 1 0-.448-.448ZM14.426 13.94a.316.316 0 1 0-.448.448l.224.224a.316.316 0 1 0 .448-.448l-.224-.224ZM4.798 4.311a.316.316 0 1 0-.448.448l.224.224a.316.316 0 0 0 .448 0 .316.316 0 0 0 0-.448l-.224-.224Z"/></g></g><defs><clipPath id="clip0_6501_88"><path fill="#fff" d="M0 0h19v19H0z"/></clipPath><clipPath id="clip1_6501_88"><path fill="#fff" d="M0 0h19v19H0z"/></clipPath></defs></svg>