<svg width="19" height="19" fill="none" xmlns="http://www.w3.org/2000/svg"><path d="M6.493 1a3.663 3.663 0 0 0-3.658 3.658 3.663 3.663 0 0 0 3.658 3.658 3.663 3.663 0 0 0 3.658-3.658A3.663 3.663 0 0 0 6.493 1Zm0 6.702a3.051 3.051 0 0 1-3.048-3.048 3.054 3.054 0 0 1 3.048-3.048 3.051 3.051 0 0 1 3.048 3.048 3.054 3.054 0 0 1-3.048 3.048ZM13.985 2.519a2.747 2.747 0 0 0-2.745 2.745 2.747 2.747 0 0 0 2.745 2.745 2.747 2.747 0 0 0 2.745-2.745 2.747 2.747 0 0 0-2.745-2.745Zm0 4.884a2.137 2.137 0 0 1-2.136-2.135c0-1.179.958-2.136 2.136-2.136 1.178 0 2.135.957 2.135 2.136a2.137 2.137 0 0 1-2.135 2.135Z" fill="#674D40"/><path d="M18.895 12.033c-.276-1.668-1.312-3.074-3.078-3.81 0 0-.781.59-1.832.571-1.149-.022-1.833-.572-1.833-.572s-.853.318-1.541.98c-.636-.565-1.71-1.025-1.71-1.025s-.983.748-2.412.737c-1.5-.011-2.404-.737-2.404-.737S.842 9.292.157 13.073c0 0-.733 2.005.965 5h10.746s.763-1.327.897-2.135h5.345c1.313-1.99.785-3.905.785-3.905Zm-7.405 5.43H1.5C.195 14.985.76 13.175.76 13.175a5.794 5.794 0 0 1 3.28-4.309 4.903 4.903 0 0 0 4.91 0 5.794 5.794 0 0 1 3.28 4.309c-.003 0 .539 2.23-.74 4.29Zm6.265-2.135h-4.866c.187-1.077-.06-2.255-.06-2.255a6.39 6.39 0 0 0-1.77-3.46c.315-.284.663-.52 1.044-.703a3.824 3.824 0 0 0 3.76 0 4.36 4.36 0 0 1 2.43 3.224s.445 1.511-.538 3.194Z" fill="#674D40"/></svg>