<svg aria-hidden="true" style="width:0;height:0;position:absolute;overflow:hidden" xmlns="http://www.w3.org/2000/svg"><defs><symbol id="rate-icon" viewBox="0 0 181 32"><path fill="#ab816c" style="fill:var(--color1,#ab816c)" d="M14.732 3.903c.399-1.228 2.137-1.228 2.536 0l2.025 6.232c.178.549.69.921 1.268.921h6.552c1.292 0 1.829 1.653.784 2.412l-5.301 3.851a1.333 1.333 0 0 0-.484 1.491l2.025 6.232c.399 1.228-1.007 2.25-2.052 1.491l-5.301-3.851a1.334 1.334 0 0 0-1.567 0l-5.301 3.851c-1.045.759-2.451-.262-2.052-1.491l2.025-6.232a1.335 1.335 0 0 0-.484-1.491l-5.301-3.851c-1.045-.759-.508-2.412.784-2.412h6.552c.578 0 1.09-.372 1.268-.921l2.025-6.232zM164.065 3.903c.399-1.228 2.137-1.228 2.536 0l2.025 6.232c.179.549.689.921 1.268.921h6.552c1.292 0 1.828 1.653.784 2.412l-5.301 3.851a1.333 1.333 0 0 0-.484 1.491l2.024 6.232c.4 1.228-1.007 2.25-2.051 1.491l-5.301-3.851a1.336 1.336 0 0 0-1.568 0l-5.301 3.851c-1.044.759-2.451-.262-2.051-1.491l2.024-6.232a1.334 1.334 0 0 0-.484-1.491l-5.301-3.851c-1.044-.759-.508-2.412.784-2.412h6.552c.579 0 1.089-.372 1.268-.921l2.025-6.232zM126.732 3.903c.399-1.228 2.137-1.228 2.536 0l2.025 6.232c.178.549.69.921 1.268.921h6.552c1.292 0 1.828 1.653.784 2.412l-5.301 3.851a1.333 1.333 0 0 0-.484 1.491l2.024 6.232c.4 1.228-1.007 2.25-2.051 1.491l-5.302-3.851a1.334 1.334 0 0 0-1.567 0l-5.301 3.851c-1.045.759-2.451-.262-2.052-1.491l2.025-6.232a1.334 1.334 0 0 0-.484-1.491l-5.301-3.851c-1.045-.759-.508-2.412.784-2.412h6.552c.578 0 1.09-.372 1.268-.921l2.025-6.232zM89.399 3.903c.399-1.228 2.137-1.228 2.536 0l2.025 6.232c.178.549.69.921 1.268.921h6.552c1.292 0 1.829 1.653.784 2.412l-5.301 3.851a1.333 1.333 0 0 0-.484 1.491l2.025 6.232c.399 1.228-1.007 2.25-2.052 1.491l-5.301-3.851a1.334 1.334 0 0 0-1.567 0l-5.301 3.851c-1.045.759-2.451-.262-2.052-1.491l2.025-6.232a1.334 1.334 0 0 0-.484-1.491l-5.301-3.851c-1.045-.759-.508-2.412.784-2.412h6.552c.578 0 1.09-.372 1.268-.921L89.4 3.903zM52.065 3.903c.399-1.228 2.137-1.228 2.536 0l2.025 6.232c.178.549.69.921 1.268.921h6.552c1.292 0 1.829 1.653.784 2.412l-5.301 3.851a1.333 1.333 0 0 0-.484 1.491l2.025 6.232c.399 1.228-1.007 2.25-2.052 1.491l-5.301-3.851a1.334 1.334 0 0 0-1.567 0l-5.301 3.851c-1.045.759-2.451-.262-2.052-1.491l2.025-6.232a1.334 1.334 0 0 0-.484-1.491l-5.301-3.851c-1.045-.759-.508-2.412.784-2.412h6.552c.578 0 1.09-.372 1.268-.921l2.025-6.232z"/></symbol><symbol id="incomplete-rate-icon" viewBox="0 0 173 32"><path fill="#ab816c" style="fill:var(--color1,#ab816c)" d="M14.249 4.68c.383-1.179 2.051-1.179 2.435 0l1.908 5.872a1.28 1.28 0 0 0 1.217.884h6.174c1.24 0 1.756 1.587.752 2.316l-4.995 3.629a1.28 1.28 0 0 0-.465 1.431l1.908 5.872c.383 1.179-.967 2.16-1.97 1.431l-4.995-3.629a1.28 1.28 0 0 0-1.505 0l-4.995 3.629c-1.003.729-2.353-.252-1.97-1.431l1.908-5.872a1.28 1.28 0 0 0-.465-1.431l-4.995-3.629c-1.003-.729-.488-2.316.752-2.316h6.174c.555 0 1.046-.357 1.217-.884l1.908-5.872z"/><path fill="none" stroke="#ab816c" style="stroke:var(--color1,#ab816c)" stroke-width="1.28" d="M156.724 4.878c.192-.59 1.027-.59 1.217 0l1.908 5.872a1.919 1.919 0 0 0 1.825 1.327h6.175c.62 0 .878.793.376 1.158l-4.996 3.629a1.924 1.924 0 0 0-.698 2.147l1.908 5.872c.192.59-.484 1.08-.984.716l-4.996-3.629a1.92 1.92 0 0 0-2.257 0l-4.995 3.629c-.502.364-1.176-.126-.986-.716l1.908-5.872a1.92 1.92 0 0 0-.698-2.147l-4.995-3.629c-.502-.364-.244-1.158.376-1.158h6.173c.832 0 1.569-.536 1.827-1.327l1.907-5.872z"/><path fill="#ab816c" style="fill:var(--color1,#ab816c)" d="M120.649 4.68c.383-1.179 2.051-1.179 2.435 0l1.908 5.872a1.28 1.28 0 0 0 1.217.884h6.173c1.24 0 1.756 1.587.753 2.316l-4.995 3.629a1.28 1.28 0 0 0-.465 1.431l1.908 5.872c.384 1.179-.966 2.16-1.969 1.431l-4.995-3.629a1.28 1.28 0 0 0-1.505 0l-4.995 3.629c-1.003.729-2.353-.252-1.97-1.431l1.908-5.872a1.28 1.28 0 0 0-.465-1.431l-4.995-3.629c-1.003-.729-.488-2.316.752-2.316h6.174c.555 0 1.046-.357 1.217-.884l1.908-5.872zM85.183 4.68c.383-1.179 2.052-1.179 2.435 0l1.908 5.872a1.28 1.28 0 0 0 1.217.884h6.174c1.24 0 1.756 1.587.752 2.316l-4.995 3.629a1.28 1.28 0 0 0-.465 1.431l1.908 5.872c.383 1.179-.967 2.16-1.97 1.431l-4.995-3.629a1.28 1.28 0 0 0-1.505 0l-4.995 3.629c-1.003.729-2.353-.252-1.97-1.431l1.908-5.872a1.28 1.28 0 0 0-.465-1.431l-4.995-3.629c-1.003-.729-.488-2.316.752-2.316h6.174c.555 0 1.046-.357 1.217-.884l1.908-5.872zM49.716 4.68c.383-1.179 2.052-1.179 2.435 0l1.908 5.872a1.28 1.28 0 0 0 1.217.884h6.174c1.24 0 1.756 1.587.752 2.316l-4.995 3.629a1.28 1.28 0 0 0-.465 1.431l1.908 5.872c.383 1.179-.967 2.16-1.97 1.431l-4.995-3.629a1.28 1.28 0 0 0-1.505 0l-4.995 3.629c-1.003.729-2.353-.252-1.97-1.431l1.908-5.872a1.28 1.28 0 0 0-.465-1.431l-4.995-3.629c-1.003-.729-.488-2.316.752-2.316h6.174a1.28 1.28 0 0 0 1.217-.884l1.908-5.872z"/></symbol><symbol id="chat-icon" viewBox="0 0 32 32"><path fill="#674d40" style="fill:var(--color1,#674d40)" d="M24.62 16.411c0-5.844-6.16-9.674-12.31-9.674C6.135 6.737 0 10.585 0 16.411c0 2.204.965 4.359 2.718 6.069.067.066.093.165.067.259-.551 2.017-1.855 3.839-2.39 4.529a.69.69 0 0 0-.071.741.69.69 0 0 0 .621.382h.018c2.618-.065 5.653-.804 7.529-2.649a.27.27 0 0 1 .252-.068c1.153.273 2.353.412 3.566.412 6.173 0 12.31-3.847 12.31-9.674zm-15.66 8.35a1.199 1.199 0 0 0-1.125.312c-1.876 1.845-4.939 2.264-6.39 2.357.662-.914 1.74-2.594 2.244-4.444a1.202 1.202 0 0 0-.317-1.177C1.779 20.255.937 18.389.937 16.411c0-4.817 5.102-8.737 11.373-8.737s11.373 3.919 11.373 8.737-5.102 8.737-11.373 8.737c-1.141 0-2.268-.13-3.35-.387z"/><path fill="#674d40" style="fill:var(--color1,#674d40)" d="M27.636 24.2c2.733-1.381 4.365-3.735 4.365-6.297 0-3.621-3.273-6.714-7.782-7.356a.47.47 0 0 0-.132.928c4.043.575 6.977 3.279 6.977 6.428 0 2.201-1.439 4.242-3.85 5.46a1.16 1.16 0 0 0-.611 1.274c.229 1.074.715 2.069 1.104 2.743-2.768-.461-3.817-1.789-4.149-2.364a1.157 1.157 0 0 0-1.001-.575H22.519c-.52 0-1.04-.036-1.547-.107a.469.469 0 0 0-.13.928c.55.077 1.114.116 1.677.116h.039c.078 0 .15.041.188.106 1.27 2.2 4.188 2.762 5.384 2.901.264.031.516-.09.657-.316s.139-.504-.005-.728c-.36-.561-1.003-1.684-1.262-2.901a.22.22 0 0 1 .117-.242zM5.016 14.734c-.896 0-1.625.729-1.625 1.625s.729 1.625 1.625 1.625 1.625-.729 1.625-1.625-.729-1.625-1.625-1.625zm0 2.312a.688.688 0 1 1 .001-1.375.688.688 0 0 1-.001 1.375zM9.65 14.734c-.896 0-1.625.729-1.625 1.625s.729 1.625 1.625 1.625 1.625-.729 1.625-1.625-.729-1.625-1.625-1.625zm0 2.312a.688.688 0 1 1 .001-1.375.688.688 0 0 1-.001 1.375zM14.285 14.734c-.896 0-1.625.729-1.625 1.625s.729 1.625 1.625 1.625 1.625-.729 1.625-1.625-.729-1.625-1.625-1.625zm0 2.312a.688.688 0 1 1 .001-1.375.688.688 0 0 1-.001 1.375zM18.919 14.734c-.896 0-1.625.729-1.625 1.625s.729 1.625 1.625 1.625 1.625-.729 1.625-1.625-.729-1.625-1.625-1.625zm0 2.312a.688.688 0 1 1 .001-1.375.688.688 0 0 1-.001 1.375z"/></symbol><symbol id="chef-hat-icon" viewBox="0 0 32 32"><path fill="#674d40" style="fill:var(--color1,#674d40)" d="M23.15 9.631a.456.456 0 0 1-.457-.457 6.696 6.696 0 0 0-6.692-6.558 6.694 6.694 0 0 0-6.692 6.558.455.455 0 0 1-.457.457.455.455 0 0 1-.457-.457 7.608 7.608 0 0 1 15.212 0 .455.455 0 0 1-.457.457z"/><path fill="#674d40" style="fill:var(--color1,#674d40)" d="M24.484 19.976a.457.457 0 1 1-.005-.915 6.645 6.645 0 0 0 6.607-6.56 6.64 6.64 0 0 0-6.688-6.574 6.792 6.792 0 0 0-1.992.295.456.456 0 0 1-.268-.874 7.723 7.723 0 0 1 2.26-.336A7.552 7.552 0 0 1 32 12.5a7.561 7.561 0 0 1-7.51 7.474h-.006zM7.515 19.976H7.51A7.565 7.565 0 0 1 0 12.502a7.552 7.552 0 0 1 7.602-7.488 7.695 7.695 0 0 1 2.26.336.47.47 0 0 1 .275.221.454.454 0 0 1-.191.622.46.46 0 0 1-.352.03 6.792 6.792 0 0 0-1.992-.295 6.64 6.64 0 0 0-6.688 6.574 6.646 6.646 0 0 0 6.607 6.56.455.455 0 0 1 .319.783.465.465 0 0 1-.324.132z"/><path fill="#674d40" style="fill:var(--color1,#674d40)" d="M24.485 31.348H7.516a.455.455 0 0 1-.457-.457V19.519a.456.456 0 0 1 .914 0v10.915h16.055V19.519a.456.456 0 0 1 .914 0v11.372a.456.456 0 0 1-.457.457z"/><path fill="#674d40" style="fill:var(--color1,#674d40)" d="M27.666 26.918H10.697a.455.455 0 0 1-.457-.457.455.455 0 0 1 .457-.457h16.969a.456.456 0 0 1 0 .914z"/></symbol><symbol id="clock-icon" viewBox="0 0 32 32"><path fill="#674d40" style="fill:var(--color1,#674d40)" d="M16 0C7.178 0 0 7.178 0 16s7.178 16 16 16 16-7.178 16-16S24.822 0 16 0zm0 30.933C7.766 30.933 1.067 24.234 1.067 16S7.766 1.067 16 1.067 30.933 7.766 30.933 16 24.234 30.933 16 30.933z"/><path fill="#674d40" style="fill:var(--color1,#674d40)" d="M16.533 13.878V8.469a.533.533 0 1 0-1.066 0v5.409a2.13 2.13 0 0 0-1.524 1.524h-3.809a.533.533 0 1 0 0 1.066h3.809a2.132 2.132 0 0 0 2.058 1.6 2.135 2.135 0 0 0 2.133-2.133c0-.991-.683-1.819-1.6-2.058zM16 17.002a1.068 1.068 0 0 1 0-2.134 1.068 1.068 0 0 1 0 2.134zM16 5.269a.533.533 0 0 0 .533-.533v-.533a.533.533 0 1 0-1.066 0v.533c0 .295.239.533.533.533zM16 26.602a.533.533 0 0 0-.533.533v.533a.533.533 0 1 0 1.066 0v-.533a.533.533 0 0 0-.533-.533zM27.733 15.402H27.2a.533.533 0 1 0 0 1.066h.533a.533.533 0 1 0 0-1.066zM4.8 15.402h-.533a.533.533 0 1 0 0 1.066H4.8a.533.533 0 1 0 0-1.066zM23.919 7.261l-.377.377a.532.532 0 0 0 .377.91.532.532 0 0 0 .377-.156l.377-.377a.534.534 0 0 0-.754-.754zM7.703 23.478l-.377.377a.532.532 0 0 0 .377.91.532.532 0 0 0 .377-.156l.377-.377a.534.534 0 0 0-.754-.754zM24.297 23.478a.533.533 0 1 0-.754.754l.377.377a.532.532 0 1 0 .754-.754l-.377-.377zM8.08 7.261a.533.533 0 1 0-.754.754l.377.377a.532.532 0 1 0 .754-.754l-.377-.377z"/></symbol><symbol id="close-icon" viewBox="0 0 32 32"><path d="M30.355 32a1.646 1.646 0 0 0 1.163-2.811L2.811.482A1.646 1.646 0 1 0 .483 2.811L29.19 31.517a1.65 1.65 0 0 0 1.165.483z"/><path d="M1.645 32c.422 0 .843-.16 1.163-.483L31.517 2.811A1.647 1.647 0 0 0 29.188.482L.481 29.189A1.646 1.646 0 0 0 1.644 32z"/></symbol><symbol id="facebook-icon" viewBox="0 0 32 32"><path d="M22.512.007 18.895 0c-4.064 0-6.69 3.091-6.69 7.875v3.631H8.568c-.314 0-.569.292-.569.653v5.261c0 .361.255.652.569.652h3.637v13.275c0 .36.254.652.569.652h4.745c.314 0 .569-.292.569-.652V18.072h4.252c.314 0 .569-.292.569-.652l.002-5.261c0-.173-.06-.339-.167-.461s-.252-.191-.402-.191h-4.254V8.429c0-1.479.307-2.23 1.987-2.23l2.437-.001c.314 0 .568-.292.568-.652V.661c0-.36-.254-.652-.568-.652z"/></symbol><symbol id="instagram-icon" viewBox="0 0 32 32"><path d="M16.316 32h-.319c-2.508.006-4.826-.058-7.08-.195-2.066-.126-3.953-.84-5.455-2.065-1.45-1.182-2.44-2.781-2.942-4.75-.438-1.715-.461-3.398-.483-5.026a343.853 343.853 0 0 1-.036-3.96c.003-1.414.02-2.798.036-3.966.022-1.628.045-3.311.483-5.026.503-1.97 1.493-3.568 2.942-4.75C4.965 1.037 6.851.323 8.918.197 11.172.06 13.49-.004 16.004.002c2.509-.005 4.826.058 7.08.195 2.066.126 3.953.84 5.455 2.065 1.45 1.182 2.44 2.781 2.943 4.75.437 1.715.461 3.398.483 5.026.016 1.168.033 2.553.036 3.96v.006c-.003 1.408-.02 2.792-.036 3.96-.022 1.628-.045 3.311-.483 5.026-.503 1.97-1.493 3.568-2.943 4.75-1.502 1.225-3.389 1.939-5.455 2.065-2.159.131-4.376.195-6.768.195zm-.319-2.5c2.468.006 4.733-.056 6.934-.19 1.563-.095 2.917-.602 4.027-1.507 1.026-.837 1.732-1.991 2.1-3.431.364-1.428.385-2.96.406-4.442.016-1.16.032-2.535.036-3.929-.004-1.394-.02-2.769-.036-3.929-.02-1.482-.041-3.015-.406-4.443-.367-1.44-1.074-2.594-2.1-3.431-1.11-.905-2.465-1.412-4.027-1.507a108.807 108.807 0 0 0-6.928-.19c-2.467-.006-4.733.056-6.934.19-1.563.095-2.917.602-4.027 1.507-1.026.837-1.732 1.991-2.1 3.431-.364 1.428-.385 2.96-.406 4.443a363.726 363.726 0 0 0-.036 3.932c.003 1.389.02 2.765.036 3.926.02 1.482.041 3.015.406 4.442.367 1.44 1.074 2.594 2.1 3.431 1.11.905 2.465 1.412 4.027 1.507 2.201.134 4.467.197 6.928.191zm-.06-5.688c-4.308 0-7.813-3.505-7.813-7.812s3.505-7.813 7.813-7.813S23.75 11.692 23.75 16s-3.505 7.812-7.813 7.812zm0-13.125c-2.929 0-5.313 2.383-5.313 5.313s2.383 5.312 5.313 5.312c2.93 0 5.313-2.383 5.313-5.312s-2.383-5.313-5.313-5.313zm8.688-5a1.875 1.875 0 1 0 0 3.75 1.875 1.875 0 0 0 0-3.75z"/></symbol><symbol id="location-icon" viewBox="0 0 25 32"><path d="M12.571 0c6.932 0 12.571 5.271 12.571 11.75 0 2.564-.866 5-2.508 7.044l-9.289 11.693c-.023.028-.059.039-.084.064a.977.977 0 0 1-1.465-.064c-2.675-3.336-7.578-9.566-9.463-11.916l-.001-.003-.012-.014C.801 16.56-.002 14.207-.002 11.75-.002 5.271 5.638 0 12.569 0zm0 18.089c3.732 0 6.782-2.851 6.782-6.339s-3.05-6.339-6.782-6.339-6.782 2.851-6.782 6.339 3.05 6.339 6.782 6.339z"/></symbol><symbol id="burger-menu-icon" viewBox="0 0 60 32"><path d="M2 0h56a2 2 0 1 1 0 4H2a2 2 0 1 1 0-4zM2 14h56a2 2 0 1 1 0 4H2a2 2 0 1 1 0-4zM2 28h56a2 2 0 1 1 0 4H2a2 2 0 1 1 0-4z"/></symbol><symbol id="people-icon" viewBox="0 0 32 32"><path fill="#674d40" style="fill:var(--color1,#674d40)" d="M10.936 1.684c-3.395 0-6.161 2.765-6.161 6.161s2.765 6.161 6.161 6.161c3.395 0 6.161-2.765 6.161-6.161s-2.765-6.161-6.161-6.161zm0 11.288c-2.835 0-5.134-2.305-5.134-5.134s2.305-5.134 5.134-5.134c2.835 0 5.134 2.305 5.134 5.134s-2.305 5.134-5.134 5.134zM23.553 4.242c-2.551 0-4.623 2.072-4.623 4.624s2.072 4.624 4.623 4.624 4.624-2.072 4.624-4.624-2.072-4.624-4.624-4.624zm0 8.226c-1.984 0-3.597-1.613-3.597-3.597s1.613-3.597 3.597-3.597 3.597 1.613 3.597 3.597-1.612 3.597-3.597 3.597z"/><path fill="#674d40" style="fill:var(--color1,#674d40)" d="M31.824 20.267c-.466-2.809-2.211-5.178-5.184-6.419 0 0-1.317.995-3.086.964-1.934-.038-3.087-.964-3.087-.964s-1.436.535-2.595 1.65c-1.071-.951-2.879-1.726-2.879-1.726s-1.657 1.26-4.063 1.241c-2.526-.019-4.05-1.241-4.05-1.241S1.419 15.649.266 22.017c0 0-1.235 3.376 1.625 8.422h18.097s1.285-2.236 1.512-3.597h9.001c2.211-3.351 1.323-6.576 1.323-6.576zm-12.473 9.146H2.526c-2.198-4.176-1.247-7.225-1.247-7.225a9.758 9.758 0 0 1 5.524-7.257c2.52 1.48 5.751 1.48 8.271 0a9.758 9.758 0 0 1 5.524 7.257c-.006 0 .907 3.754-1.247 7.225zm10.551-3.597h-8.195c.315-1.814-.101-3.798-.101-3.798a10.768 10.768 0 0 0-2.98-5.827 7.34 7.34 0 0 1 1.757-1.184 6.44 6.44 0 0 0 6.331 0 7.34 7.34 0 0 1 4.094 5.43s.75 2.545-.907 5.379z"/></symbol><symbol id="phone-icon" viewBox="0 0 32 32"><path d="M29.43 19.631a19.33 19.33 0 0 1-5.705-.849c-.893-.285-1.991-.024-2.536.5l-3.598 2.539c-4.172-2.082-6.743-4.483-8.939-8.354l2.636-3.275c.685-.639.931-1.573.636-2.449a15.997 15.997 0 0 1-.912-5.342c0-1.323-1.152-2.4-2.567-2.4H2.569C1.153.001.001 1.078.001 2.401c0 15.168 13.202 27.508 29.43 27.508 1.416 0 2.568-1.077 2.568-2.4v-5.477c0-1.323-1.152-2.4-2.568-2.4z"/></symbol><symbol id="twitter-icon" viewBox="0 0 32 32"><path d="M32 5.441c-1.19.583-2.458.97-3.78 1.158 1.36-.908 2.398-2.334 2.886-4.053a12.307 12.307 0 0 1-4.16 1.775C25.742 2.888 24.026 2 22.154 2c-3.632 0-6.556 3.295-6.556 7.335 0 .581.044 1.14.152 1.672-5.454-.297-10.28-3.219-13.522-7.671a8.059 8.059 0 0 0-.898 3.707c0 2.54 1.17 4.791 2.914 6.095-1.054-.022-2.088-.364-2.964-.903v.08c0 3.564 2.274 6.524 5.256 7.206a5.905 5.905 0 0 1-1.72.241c-.42 0-.844-.027-1.242-.125.85 2.904 3.262 5.039 6.13 5.109-2.232 1.952-5.066 3.128-8.134 3.128-.538 0-1.054-.027-1.57-.101 2.906 2.095 6.35 3.291 10.064 3.291 12.072 0 18.672-11.178 18.672-20.868 0-.324-.01-.637-.024-.948C30.014 8.215 31.108 6.925 32 5.441z"/></symbol></defs></svg>