<svg aria-hidden="true" style="width:0;height:0;position:absolute;overflow:hidden" xmlns="http://www.w3.org/2000/svg"><defs><symbol id="icon-enter" viewBox="0 0 32 32"><path d="M9.333 29.333H6.666a4 4 0 0 1-4-4V6.666a4 4 0 0 1 4-4h2.667a1.333 1.333 0 0 0 0-2.666H6.666A6.675 6.675 0 0 0-.001 6.667v18.667a6.675 6.675 0 0 0 6.667 6.667h2.667a1.333 1.333 0 0 0 0-2.666z"/><path d="m30.667 14.667-21.036.043c.117-.217.263-.417.435-.595l5.172-5.172a1.333 1.333 0 0 0-1.852-1.918l-.033.033-5.175 5.172a5.333 5.333 0 0 0 0 7.541l5.172 5.172a1.333 1.333 0 0 0 1.918-1.852l-.033-.033-5.172-5.172a2.698 2.698 0 0 1-.388-.509l20.992-.043a1.333 1.333 0 0 0 0-2.666z"/></symbol><symbol id="icon-undo-alt" viewBox="0 0 32 32"><path d="M10.267 20.009c-.362.362-.862.586-1.414.586s-1.052-.224-1.414-.586l-6.295-6.3C.437 13.002 0 12.025 0 10.946S.437 8.89 1.144 8.183l6.3-6.3a2 2 0 0 1 2.821 2.829l.001-.002-4.311 4.223h18.951a7.1 7.1 0 0 1 7.093 7.092v8.908a7.098 7.098 0 0 1-7.09 7.091H7.09a2 2 0 1 1 0-4h17.817a3.094 3.094 0 0 0 3.092-3.09v-8.908a3.095 3.095 0 0 0-3.093-3.092H6.029l4.237 4.248c.362.362.586.862.586 1.414s-.224 1.052-.586 1.414z"/></symbol><symbol id="angle-down" viewBox="0 0 32 32"><path d="M2.013 8.105h.003c.551 0 1.05.224 1.411.587l10.231 10.229c.603.603 1.437.977 2.357.977s1.754-.373 2.357-.977L28.587 8.705a2 2 0 1 1 2.829 2.827l-.001.001L21.2 21.749c-1.328 1.325-3.161 2.145-5.185 2.145s-3.858-.82-5.185-2.145L.599 11.52a2 2 0 0 1 1.414-3.415h.001z"/></symbol><symbol id="icon-search" viewBox="0 0 32 32"><path d="m31.008 27.231-7.58-6.447c-.784-.705-1.622-1.029-2.299-.998a11.954 11.954 0 0 0 2.87-7.787c0-6.627-5.373-12-12-12s-12 5.373-12 12 5.373 12 12 12c2.972 0 5.691-1.081 7.787-2.87-.031.677.293 1.515.998 2.299l6.447 7.58c1.104 1.226 2.907 1.33 4.007.23s.997-2.903-.23-4.007zM12 20a8 8 0 1 1 0-16 8 8 0 0 1 0 16z"/></symbol></defs></svg>