<svg width="19" height="19" viewBox="0 0 19 19" fill="none" xmlns="http://www.w3.org/2000/svg">
<path d="M14.6183 9.74416C14.6183 6.27436 10.9608 4 7.30917 4C3.64299 4 0 6.28505 0 9.74416C0 11.0528 0.573154 12.3325 1.61392 13.3476C1.65374 13.3865 1.66899 13.4454 1.6537 13.5015C1.32681 14.699 0.552558 15.7808 0.234865 16.1904C0.136043 16.3178 0.119789 16.4863 0.192486 16.6301C0.263551 16.7708 0.404047 16.857 0.561019 16.857C0.564582 16.857 0.568107 16.8569 0.57167 16.8569C2.12629 16.8181 3.92829 16.3793 5.04216 15.2842C5.08109 15.2459 5.13694 15.2308 5.19164 15.2438C5.87601 15.4061 6.58847 15.4884 7.30917 15.4884C10.9743 15.4883 14.6183 13.2042 14.6183 9.74416ZM5.32007 14.7021C5.07808 14.6446 4.82823 14.7139 4.65192 14.8872C3.53801 15.9824 1.71909 16.2314 0.858043 16.2867C1.25136 15.7438 1.89087 14.7466 2.19071 13.648C2.25926 13.3969 2.18715 13.1292 2.00257 12.9491C1.05665 12.0265 0.55664 10.9183 0.55664 9.74416C0.55664 6.88377 3.5858 4.55664 7.30917 4.55664C11.0325 4.55664 14.0617 6.88373 14.0617 9.74416C14.0617 12.6046 11.0325 14.9317 7.30917 14.9317C6.63167 14.9317 5.96247 14.8544 5.32007 14.7021Z" fill="#674D40"/>
<path d="M16.4086 14.3686C18.0313 13.5485 19.0001 12.1508 19.0001 10.6297C19.0001 8.4799 17.0568 6.64298 14.3793 6.26183C14.2274 6.24023 14.0862 6.34596 14.0646 6.49814C14.0429 6.65033 14.1487 6.79123 14.3009 6.81291C16.7013 7.15461 18.4435 8.75978 18.4435 10.6297C18.4435 11.9364 17.5889 13.1484 16.1575 13.8718C15.8792 14.0125 15.73 14.3235 15.7949 14.6281C15.9306 15.2659 16.2195 15.8564 16.4506 16.2566C14.8069 15.9831 14.184 15.1944 13.987 14.8531C13.8654 14.6424 13.638 14.5118 13.3926 14.5118C13.3919 14.5118 13.3911 14.5118 13.3904 14.5118L13.37 14.5118C13.0614 14.5118 12.7523 14.4904 12.4516 14.4481C12.2998 14.4268 12.1586 14.5328 12.1373 14.685C12.1159 14.8373 12.2219 14.978 12.3742 14.9993C12.7005 15.0452 13.0356 15.0684 13.37 15.0684L13.3927 15.0684H13.3931C13.4397 15.0684 13.4824 15.0925 13.5049 15.1313C14.2587 16.4377 15.9915 16.7712 16.7015 16.854C16.8583 16.8722 17.0077 16.8006 17.0914 16.6666C17.1749 16.5329 17.1738 16.3673 17.0886 16.2346C16.8748 15.9015 16.4931 15.2349 16.3393 14.5123C16.3271 14.4545 16.3555 14.3954 16.4086 14.3686Z" fill="#674D40"/>
<path d="M2.97826 8.74854C2.44637 8.74854 2.01367 9.18127 2.01367 9.71312C2.01367 10.245 2.44637 10.6777 2.97826 10.6777C3.51014 10.6777 3.94284 10.245 3.94284 9.71312C3.94284 9.18127 3.51014 8.74854 2.97826 8.74854ZM2.97826 10.1211C2.7533 10.1211 2.57031 9.93808 2.57031 9.71316C2.57031 9.48824 2.75334 9.30521 2.97826 9.30521C3.20318 9.30521 3.3862 9.48824 3.3862 9.71316C3.3862 9.93808 3.20318 10.1211 2.97826 10.1211Z" fill="#674D40"/>
<path d="M5.72996 8.74854C5.19808 8.74854 4.76538 9.18127 4.76538 9.71312C4.76538 10.245 5.19808 10.6777 5.72996 10.6777C6.26185 10.6777 6.69455 10.245 6.69455 9.71312C6.69455 9.18127 6.26185 8.74854 5.72996 8.74854ZM5.72996 10.1211C5.50501 10.1211 5.32202 9.93808 5.32202 9.71316C5.32202 9.48824 5.50504 9.30521 5.72996 9.30521C5.95488 9.30521 6.13791 9.48824 6.13791 9.71316C6.13791 9.93808 5.95492 10.1211 5.72996 10.1211Z" fill="#674D40"/>
<path d="M8.48167 8.74854C7.94978 8.74854 7.51709 9.18127 7.51709 9.71312C7.51709 10.245 7.94978 10.6777 8.48167 10.6777C9.01356 10.6777 9.44626 10.245 9.44626 9.71312C9.44626 9.18127 9.01356 8.74854 8.48167 8.74854ZM8.48167 10.1211C8.25672 10.1211 8.07373 9.93808 8.07373 9.71316C8.07373 9.48824 8.25675 9.30521 8.48167 9.30521C8.70659 9.30521 8.88962 9.48824 8.88962 9.71316C8.88962 9.93808 8.70663 10.1211 8.48167 10.1211Z" fill="#674D40"/>
<path d="M11.2334 8.74854C10.7015 8.74854 10.2688 9.18127 10.2688 9.71312C10.2688 10.245 10.7015 10.6777 11.2334 10.6777C11.7653 10.6777 12.198 10.245 12.198 9.71312C12.198 9.18127 11.7653 8.74854 11.2334 8.74854ZM11.2334 10.1211C11.0084 10.1211 10.8254 9.93808 10.8254 9.71316C10.8254 9.48824 11.0085 9.30521 11.2334 9.30521C11.4583 9.30521 11.6413 9.48824 11.6413 9.71316C11.6413 9.93808 11.4583 10.1211 11.2334 10.1211Z" fill="#674D40"/>
</svg>
