<svg width="19" height="19" viewBox="0 0 19 19" fill="none" xmlns="http://www.w3.org/2000/svg">
<path d="M13.7453 5.71824C13.6733 5.71824 13.6043 5.68965 13.5534 5.63874C13.5025 5.58784 13.4739 5.5188 13.4739 5.44681C13.4528 4.40692 13.0249 3.41672 12.2821 2.68874C11.5392 1.96075 10.5405 1.55301 9.50042 1.55301C8.46032 1.55301 7.46166 1.96075 6.71879 2.68874C5.97592 3.41672 5.54804 4.40692 5.52699 5.44681C5.52699 5.5188 5.49839 5.58784 5.44749 5.63874C5.39658 5.68965 5.32755 5.71824 5.25556 5.71824C5.18357 5.71824 5.11453 5.68965 5.06363 5.63874C5.01273 5.58784 4.98413 5.5188 4.98413 5.44681C5.00251 4.26114 5.48642 3.13026 6.33139 2.29829C7.17636 1.46632 8.31461 1 9.50042 1C10.6862 1 11.8245 1.46632 12.6695 2.29829C13.5144 3.13026 13.9983 4.26114 14.0167 5.44681C14.0167 5.5188 13.9881 5.58784 13.9372 5.63874C13.8863 5.68965 13.8173 5.71824 13.7453 5.71824Z" fill="#674D40"/>
<path d="M14.5376 11.8605C14.4656 11.8609 14.3964 11.8328 14.3452 11.7822C14.294 11.7316 14.265 11.6627 14.2646 11.5907C14.2641 11.5187 14.2923 11.4495 14.3429 11.3983C14.3935 11.3471 14.4624 11.3181 14.5344 11.3177C15.5681 11.3116 16.5581 10.9001 17.2917 10.1717C18.0252 9.44339 18.4436 8.45629 18.4571 7.42266C18.4468 6.37888 18.023 5.38177 17.2786 4.65006C16.5341 3.91835 15.5299 3.51177 14.4861 3.51951C14.0853 3.51885 13.6867 3.57795 13.3035 3.69485C13.235 3.71475 13.1614 3.7069 13.0987 3.67301C13.036 3.63912 12.9891 3.58191 12.9682 3.51374C12.9473 3.44557 12.9541 3.37192 12.9871 3.3087C13.02 3.24548 13.0765 3.19777 13.1444 3.17588C13.5792 3.0432 14.0314 2.97605 14.4861 2.97665C15.6738 2.96906 16.816 3.43288 17.6623 4.26637C18.5085 5.09985 18.9895 6.23495 18.9999 7.42266C18.986 8.59899 18.5111 9.7229 17.6773 10.5528C16.8434 11.3826 15.7173 11.8522 14.5409 11.8605H14.5376Z" fill="#674D40"/>
<path d="M4.46228 11.8605H4.45903C3.28264 11.8522 2.15648 11.3826 1.32265 10.5528C0.488823 9.7229 0.0139062 8.59899 0 7.42266C0.0103978 6.23495 0.491463 5.09985 1.33767 4.26637C2.18387 3.43288 3.32612 2.96906 4.51385 2.97665C4.96849 2.97605 5.42068 3.0432 5.85553 3.17588C5.89008 3.18592 5.92229 3.20273 5.95028 3.22533C5.97828 3.24792 6.00151 3.27586 6.01861 3.30752C6.03571 3.33917 6.04635 3.37391 6.0499 3.40972C6.05346 3.44552 6.04986 3.48167 6.03932 3.51607C6.02877 3.55047 6.0115 3.58243 5.98849 3.6101C5.96548 3.63776 5.93721 3.66057 5.9053 3.67721C5.8734 3.69384 5.83851 3.70397 5.80266 3.707C5.76681 3.71003 5.73071 3.7059 5.69647 3.69485C5.31317 3.57795 4.91458 3.51885 4.51385 3.51951C3.47005 3.51177 2.4658 3.91835 1.72136 4.65006C0.97693 5.38177 0.553106 6.37888 0.542857 7.42266C0.556277 8.45629 0.974734 9.44339 1.70827 10.1717C2.4418 10.9001 3.43184 11.3116 4.46554 11.3177C4.50119 11.3179 4.53644 11.3251 4.56929 11.3389C4.60214 11.3528 4.63194 11.373 4.65699 11.3983C4.68205 11.4237 4.70186 11.4537 4.7153 11.4867C4.72875 11.5197 4.73555 11.5551 4.73534 11.5907C4.73513 11.6264 4.72789 11.6616 4.71406 11.6945C4.70022 11.7273 4.68005 11.7571 4.65469 11.7822C4.62933 11.8072 4.59929 11.827 4.56628 11.8405C4.53327 11.8539 4.49793 11.8607 4.46228 11.8605Z" fill="#674D40"/>
<path d="M14.5378 18.613H4.46235C4.39036 18.613 4.32132 18.5844 4.27042 18.5335C4.21951 18.4826 4.19092 18.4136 4.19092 18.3416V11.5895C4.19092 11.5176 4.21951 11.4485 4.27042 11.3976C4.32132 11.3467 4.39036 11.3181 4.46235 11.3181C4.53433 11.3181 4.60337 11.3467 4.65427 11.3976C4.70518 11.4485 4.73377 11.5176 4.73377 11.5895V18.0702H14.2663V11.5895C14.2663 11.5176 14.2949 11.4485 14.3458 11.3976C14.3967 11.3467 14.4658 11.3181 14.5378 11.3181C14.6098 11.3181 14.6788 11.3467 14.7297 11.3976C14.7806 11.4485 14.8092 11.5176 14.8092 11.5895V18.3416C14.8092 18.4136 14.7806 18.4826 14.7297 18.5335C14.6788 18.5844 14.6098 18.613 14.5378 18.613Z" fill="#674D40"/>
<path d="M16.4267 15.9828H6.35126C6.27928 15.9828 6.21024 15.9542 6.15933 15.9033C6.10843 15.8524 6.07983 15.7834 6.07983 15.7114C6.07983 15.6394 6.10843 15.5703 6.15933 15.5194C6.21024 15.4685 6.27928 15.4399 6.35126 15.4399H16.4267C16.4987 15.4399 16.5677 15.4685 16.6186 15.5194C16.6695 15.5703 16.6981 15.6394 16.6981 15.7114C16.6981 15.7834 16.6695 15.8524 16.6186 15.9033C16.5677 15.9542 16.4987 15.9828 16.4267 15.9828Z" fill="#674D40"/>
</svg>
