<svg width="19" height="19" viewBox="0 0 19 19" fill="none" xmlns="http://www.w3.org/2000/svg">
<g clip-path="url(#clip0_6501_88)">
<g clip-path="url(#clip1_6501_88)">
<path d="M9.5 0C4.2617 0 0 4.2617 0 9.5C0 14.7383 4.2617 19 9.5 19C14.7383 19 19 14.7383 19 9.5C19 4.2617 14.7383 0 9.5 0ZM9.5 18.3667C4.61098 18.3667 0.633333 14.389 0.633333 9.5C0.633333 4.61098 4.61098 0.633333 9.5 0.633333C14.389 0.633333 18.3667 4.61098 18.3667 9.5C18.3667 14.389 14.389 18.3667 9.5 18.3667Z" fill="#674D40"/>
<path d="M9.81662 8.23997V5.02834C9.81662 4.85322 9.67475 4.71167 9.49995 4.71167C9.32515 4.71167 9.18328 4.85322 9.18328 5.02834V8.23997C8.74027 8.35524 8.39352 8.70199 8.27825 9.145H6.01662C5.84182 9.145 5.69995 9.28655 5.69995 9.46167C5.69995 9.63679 5.84182 9.77834 6.01662 9.77834H8.27825C8.4198 10.323 8.91158 10.7283 9.49995 10.7283C10.1985 10.7283 10.7666 10.1602 10.7666 9.46167C10.7666 8.87299 10.3613 8.38152 9.81662 8.23997ZM9.49995 10.095C9.15067 10.095 8.86662 9.81095 8.86662 9.46167C8.86662 9.11239 9.15067 8.82834 9.49995 8.82834C9.84923 8.82834 10.1333 9.11239 10.1333 9.46167C10.1333 9.81095 9.84923 10.095 9.49995 10.095Z" fill="#674D40"/>
<path d="M9.50002 3.12847C9.67482 3.12847 9.81668 2.98692 9.81668 2.8118V2.49513C9.81668 2.32002 9.67482 2.17847 9.50002 2.17847C9.32522 2.17847 9.18335 2.32002 9.18335 2.49513V2.8118C9.18335 2.98692 9.32522 3.12847 9.50002 3.12847Z" fill="#674D40"/>
<path d="M9.50002 15.7952C9.32522 15.7952 9.18335 15.9367 9.18335 16.1118V16.4285C9.18335 16.6036 9.32522 16.7452 9.50002 16.7452C9.67482 16.7452 9.81668 16.6036 9.81668 16.4285V16.1118C9.81668 15.9367 9.67482 15.7952 9.50002 15.7952Z" fill="#674D40"/>
<path d="M16.4666 9.14502H16.1499C15.9751 9.14502 15.8333 9.28657 15.8333 9.46169C15.8333 9.6368 15.9751 9.77835 16.1499 9.77835H16.4666C16.6414 9.77835 16.7833 9.6368 16.7833 9.46169C16.7833 9.28657 16.6414 9.14502 16.4666 9.14502Z" fill="#674D40"/>
<path d="M2.85013 9.14502H2.53346C2.35866 9.14502 2.2168 9.28657 2.2168 9.46169C2.2168 9.6368 2.35866 9.77835 2.53346 9.77835H2.85013C3.02493 9.77835 3.1668 9.6368 3.1668 9.46169C3.1668 9.28657 3.02493 9.14502 2.85013 9.14502Z" fill="#674D40"/>
<path d="M14.2022 4.31149L13.9784 4.53538C13.8545 4.65919 13.8545 4.85933 13.9784 4.98314C14.0401 5.04489 14.1212 5.07593 14.2022 5.07593C14.2833 5.07593 14.3644 5.04489 14.4261 4.98314L14.65 4.75926C14.7738 4.63544 14.7738 4.43531 14.65 4.31149C14.5262 4.18768 14.3261 4.18799 14.2022 4.31149Z" fill="#674D40"/>
<path d="M4.57383 13.9399L4.34994 14.1638C4.22613 14.2876 4.22613 14.4877 4.34994 14.6116C4.41169 14.6733 4.49276 14.7043 4.57383 14.7043C4.65489 14.7043 4.73596 14.6733 4.79771 14.6116L5.02159 14.3877C5.14541 14.2639 5.14541 14.0637 5.02159 13.9399C4.89777 13.8161 4.69733 13.8164 4.57383 13.9399Z" fill="#674D40"/>
<path d="M14.4261 13.94C14.3023 13.8162 14.1022 13.8162 13.9784 13.94C13.8545 14.0638 13.8545 14.264 13.9784 14.3878L14.2022 14.6117C14.264 14.6734 14.3451 14.7045 14.4261 14.7045C14.5072 14.7045 14.5883 14.6734 14.65 14.6117C14.7738 14.4879 14.7738 14.2877 14.65 14.1639L14.4261 13.94Z" fill="#674D40"/>
<path d="M4.79771 4.31137C4.67389 4.18755 4.47376 4.18755 4.34994 4.31137C4.22613 4.43518 4.22613 4.63532 4.34994 4.75913L4.57383 4.98302C4.63558 5.04477 4.71664 5.0758 4.79771 5.0758C4.87878 5.0758 4.95984 5.04477 5.02159 4.98302C5.14541 4.8592 5.14541 4.65907 5.02159 4.53525L4.79771 4.31137Z" fill="#674D40"/>
</g>
</g>
<defs>
<clipPath id="clip0_6501_88">
<rect width="19" height="19" fill="white"/>
</clipPath>
<clipPath id="clip1_6501_88">
<rect width="19" height="19" fill="white"/>
</clipPath>
</defs>
</svg>
