<svg width="20" height="19" viewBox="0 0 20 19" fill="none" xmlns="http://www.w3.org/2000/svg">
<path d="M9.44113 1.81081C9.5908 1.35015 10.2425 1.35016 10.3922 1.81081L11.8827 6.3982C12.0835 7.01623 12.6595 7.43467 13.3093 7.43467H18.1328C18.6171 7.43467 18.8185 8.05448 18.4267 8.33918L14.5244 11.1743C13.9987 11.5563 13.7787 12.2334 13.9795 12.8514L15.47 17.4388C15.6197 17.8994 15.0925 18.2825 14.7006 17.9978L10.7983 15.1626C10.2726 14.7807 9.56071 14.7807 9.03498 15.1626L5.13271 17.9978C4.74086 18.2825 4.21362 17.8994 4.36329 17.4388L5.85382 12.8514C6.05464 12.2334 5.83465 11.5563 5.30892 11.1743L1.40665 8.33918C1.01479 8.05448 1.21618 7.43467 1.70054 7.43467H6.52401C7.17385 7.43467 7.74978 7.01623 7.9506 6.3982L9.44113 1.81081Z" stroke="#AB816C"/>
</svg>
