<svg width="135" height="25" viewBox="0 0 135 25" fill="none" xmlns="http://www.w3.org/2000/svg">
<path d="M11.1323 3.6563C11.4316 2.73499 12.735 2.73499 13.0344 3.6563L14.5249 8.24369C14.6588 8.65571 15.0428 8.93467 15.476 8.93467H20.2994C21.2682 8.93467 21.6709 10.1743 20.8872 10.7437L16.985 13.5788C16.6345 13.8335 16.4878 14.2849 16.6217 14.6969L18.1122 19.2843C18.4116 20.2056 17.3571 20.9717 16.5734 20.4023L12.6711 17.5671C12.3206 17.3125 11.846 17.3125 11.4956 17.5671L7.59329 20.4023C6.80957 20.9717 5.75509 20.2056 6.05444 19.2843L7.54498 14.6969C7.67885 14.2849 7.53219 13.8335 7.1817 13.5789L3.27944 10.7437C2.49573 10.1743 2.8985 8.93467 3.86722 8.93467H8.69069C9.12392 8.93467 9.50787 8.65571 9.64175 8.24369L11.1323 3.6563Z" fill="#AB816C"/>
<path d="M122.441 3.81081C122.591 3.35015 123.243 3.35016 123.392 3.81081L124.883 8.3982C125.084 9.01623 125.659 9.43467 126.309 9.43467H131.133C131.617 9.43467 131.819 10.0545 131.427 10.3392L127.524 13.1743C126.999 13.5563 126.779 14.2334 126.979 14.8514L128.47 19.4388C128.62 19.8994 128.092 20.2825 127.701 19.9978L123.798 17.1626C123.273 16.7807 122.561 16.7807 122.035 17.1626L118.133 19.9978C117.741 20.2825 117.214 19.8994 117.363 19.4388L118.854 14.8514C119.055 14.2334 118.835 13.5563 118.309 13.1743L114.407 10.3392C114.015 10.0545 114.216 9.43467 114.701 9.43467H119.524C120.174 9.43467 120.75 9.01623 120.951 8.3982L122.441 3.81081Z" stroke="#AB816C"/>
<path d="M94.2573 3.6563C94.5566 2.73499 95.86 2.73499 96.1594 3.6563L97.6499 8.24369C97.7838 8.65571 98.1678 8.93467 98.601 8.93467H103.424C104.393 8.93467 104.796 10.1743 104.012 10.7437L100.11 13.5788C99.7595 13.8335 99.6128 14.2849 99.7467 14.6969L101.237 19.2843C101.537 20.2056 100.482 20.9717 99.6984 20.4023L95.7961 17.5671C95.4456 17.3125 94.971 17.3125 94.6206 17.5671L90.7183 20.4023C89.9346 20.9717 88.8801 20.2056 89.1794 19.2843L90.67 14.6969C90.8038 14.2849 90.6572 13.8335 90.3067 13.5789L86.4044 10.7437C85.6207 10.1743 86.0235 8.93467 86.9922 8.93467H91.8157C92.2489 8.93467 92.6329 8.65571 92.7667 8.24369L94.2573 3.6563Z" fill="#AB816C"/>
<path d="M66.5489 3.6563C66.8483 2.73499 68.1517 2.73499 68.4511 3.6563L69.9416 8.24369C70.0755 8.65571 70.4594 8.93467 70.8926 8.93467H75.7161C76.6848 8.93467 77.0876 10.1743 76.3039 10.7437L72.4016 13.5788C72.0511 13.8335 71.9045 14.2849 72.0384 14.6969L73.5289 19.2843C73.8282 20.2056 72.7738 20.9717 71.9901 20.4023L68.0878 17.5671C67.7373 17.3125 67.2627 17.3125 66.9122 17.5671L63.01 20.4023C62.2262 20.9717 61.1718 20.2056 61.4711 19.2843L62.9616 14.6969C63.0955 14.2849 62.9489 13.8335 62.5984 13.5789L58.6961 10.7437C57.9124 10.1743 58.3152 8.93467 59.2839 8.93467H64.1074C64.5406 8.93467 64.9245 8.65571 65.0584 8.24369L66.5489 3.6563Z" fill="#AB816C"/>
<path d="M38.8406 3.6563C39.14 2.73499 40.4434 2.73499 40.7427 3.6563L42.2333 8.24369C42.3671 8.65571 42.7511 8.93467 43.1843 8.93467H48.0078C48.9765 8.93467 49.3793 10.1743 48.5956 10.7437L44.6933 13.5788C44.3428 13.8335 44.1961 14.2849 44.33 14.6969L45.8206 19.2843C46.1199 20.2056 45.0654 20.9717 44.2817 20.4023L40.3794 17.5671C40.029 17.3125 39.5544 17.3125 39.2039 17.5671L35.3016 20.4023C34.5179 20.9717 33.4634 20.2056 33.7628 19.2843L35.2533 14.6969C35.3872 14.2849 35.2405 13.8335 34.89 13.5789L30.9878 10.7437C30.2041 10.1743 30.6068 8.93467 31.5756 8.93467H36.399C36.8322 8.93467 37.2162 8.65571 37.3501 8.24369L38.8406 3.6563Z" fill="#AB816C"/>
</svg>
