<svg width="11" height="14" viewBox="0 0 11 14" fill="none" xmlns="http://www.w3.org/2000/svg">
<path d="M5.5 0C8.53262 0 11 2.30618 11 5.14067C11 6.26239 10.6209 7.32823 9.90282 8.22244L5.83903 13.3381C5.82887 13.3505 5.81336 13.3552 5.80208 13.3663C5.599 13.5696 5.30595 13.5184 5.16126 13.3381C3.99103 11.8787 1.84603 9.15303 1.02131 8.1249C1.02131 8.1249 1.02103 8.12411 1.02074 8.12358L1.01567 8.11725C0.351154 7.24466 0 6.21547 0 5.14067C0 2.30618 2.46738 0 5.5 0ZM5.5 7.914C7.13279 7.914 8.46718 6.66679 8.46718 5.14067C8.46718 3.61455 7.13279 2.36735 5.5 2.36735C3.86721 2.36735 2.53282 3.61455 2.53282 5.14067C2.53282 6.66679 3.86721 7.914 5.5 7.914Z" fill="black"/>
</svg>
