<svg width="19" height="19" viewBox="0 0 19 19" fill="none" xmlns="http://www.w3.org/2000/svg">
<path d="M6.49328 1C4.47736 1 2.83545 2.64191 2.83545 4.65783C2.83545 6.67375 4.47736 8.31565 6.49328 8.31565C8.50919 8.31565 10.1511 6.67375 10.1511 4.65783C10.1511 2.64191 8.50919 1 6.49328 1ZM6.49328 7.70228C4.81023 7.70228 3.44509 6.3334 3.44509 4.65409C3.44509 2.97478 4.81397 1.6059 6.49328 1.6059C8.17632 1.6059 9.54146 2.97478 9.54146 4.65409C9.54146 6.3334 8.17258 7.70228 6.49328 7.70228Z" fill="#674D40"/>
<path d="M13.9847 2.51855C12.47 2.51855 11.2395 3.74905 11.2395 5.26379C11.2395 6.77854 12.47 8.00903 13.9847 8.00903C15.4995 8.00903 16.73 6.77854 16.73 5.26379C16.73 3.74905 15.4995 2.51855 13.9847 2.51855ZM13.9847 7.40314C12.8066 7.40314 11.8491 6.44567 11.8491 5.26753C11.8491 4.0894 12.8066 3.13193 13.9847 3.13193C15.1629 3.13193 16.1203 4.0894 16.1203 5.26753C16.1203 6.44567 15.1629 7.40314 13.9847 7.40314Z" fill="#674D40"/>
<path d="M18.8953 12.0333C18.6186 10.3652 17.5826 8.95893 15.8172 8.22213C15.8172 8.22213 15.0355 8.81306 13.9846 8.79436C12.8364 8.77192 12.1519 8.22213 12.1519 8.22213C12.1519 8.22213 11.2992 8.54004 10.611 9.20204C9.97518 8.63728 8.90176 8.17725 8.90176 8.17725C8.90176 8.17725 7.91812 8.92527 6.48939 8.91405C4.98961 8.90283 4.0845 8.17725 4.0845 8.17725C4.0845 8.17725 0.841828 9.2918 0.157388 13.073C0.157388 13.073 -0.575673 15.0777 1.12234 18.0736H11.8677C11.8677 18.0736 12.6307 16.7458 12.7653 15.938H18.1099C19.4227 13.9482 18.8953 12.0333 18.8953 12.0333ZM11.4899 17.4639H1.50009C0.194789 14.9842 0.759546 13.174 0.759546 13.174C1.07746 11.2778 2.29673 9.67703 4.03962 8.86543C5.53567 9.74435 7.45434 9.74435 8.95039 8.86543C10.6933 9.67703 11.9126 11.2778 12.2305 13.174C12.2267 13.174 12.769 15.4031 11.4899 17.4639ZM17.7546 15.3283H12.8887C13.0757 14.2512 12.8289 13.073 12.8289 13.073C12.6082 11.7416 11.9799 10.541 11.0598 9.61345C11.374 9.3292 11.7218 9.09357 12.1033 8.91031C13.2515 9.56857 14.7139 9.56857 15.8621 8.91031C17.1524 9.52743 18.0576 10.7205 18.2932 12.1343C18.2932 12.1343 18.7383 13.6453 17.7546 15.3283Z" fill="#674D40"/>
</svg>
