<svg width="13" height="13" viewBox="0 0 13 13" fill="none" xmlns="http://www.w3.org/2000/svg">
<path d="M11.9559 7.97502C11.1601 7.97502 10.3787 7.85868 9.63815 7.62995C9.2753 7.51427 8.82924 7.62039 8.60778 7.83298L7.14618 8.86427C5.45113 8.01856 4.40702 7.04296 3.51456 5.47053L4.58545 4.13998C4.86368 3.88028 4.96347 3.50091 4.84391 3.14496C4.59815 2.44919 4.4733 1.71915 4.4733 0.974966C4.47333 0.437365 4.00541 0 3.43027 0H1.04306C0.467929 0 0 0.437365 0 0.974935C0 7.1369 5.36336 12.1499 11.9559 12.1499C12.5311 12.1499 12.999 11.7125 12.999 11.175V8.94992C12.999 8.41238 12.531 7.97502 11.9559 7.97502Z" fill="#2E2520"/>
</svg>
