<svg aria-hidden="true" style="position: absolute; width: 0; height: 0; overflow: hidden;" version="1.1"
    xmlns="http://www.w3.org/2000/svg" xmlns:xlink="http://www.w3.org/1999/xlink">
    <defs>
        <symbol id="icon-enter" viewBox="0 0 32 32">
            <path
                d="M9.333 29.333h-2.667c-2.209 0-4-1.791-4-4v-18.667c0-2.209 1.791-4 4-4h2.667c0.736 0 1.333-0.597 1.333-1.333s-0.597-1.333-1.333-1.333h-2.667c-3.68 0.004-6.662 2.987-6.667 6.667v18.667c0.004 3.68 2.987 6.662 6.667 6.667h2.667c0.736 0 1.333-0.597 1.333-1.333s-0.597-1.333-1.333-1.333z">
            </path>
            <path
                d="M30.667 14.667v0l-21.036 0.043c0.117-0.217 0.263-0.417 0.435-0.595l5.172-5.172c0.53-0.512 0.544-1.356 0.033-1.885s-1.356-0.544-1.885-0.033c-0.011 0.011-0.022 0.022-0.033 0.033l-5.175 5.172c-2.082 2.083-2.082 5.459 0 7.541l5.172 5.172c0.512 0.53 1.356 0.544 1.885 0.033s0.544-1.356 0.033-1.885c-0.011-0.011-0.022-0.022-0.033-0.033l-5.172-5.172c-0.149-0.154-0.28-0.325-0.388-0.509l20.992-0.043c0.736 0 1.333-0.597 1.333-1.333s-0.597-1.333-1.333-1.333z">
            </path>
        </symbol>
        <symbol id="icon-undo-alt" viewBox="0 0 32 32">
            <path
                d="M10.267 20.009c-0.362 0.362-0.862 0.586-1.414 0.586s-1.052-0.224-1.414-0.586v0l-6.295-6.3c-0.707-0.707-1.144-1.684-1.144-2.763s0.437-2.056 1.144-2.763l6.3-6.3c0.354-0.322 0.826-0.52 1.345-0.52 1.105 0 2 0.895 2 2 0 0.52-0.198 0.994-0.524 1.349l0.001-0.002-4.311 4.223h18.951c3.916 0.004 7.089 3.177 7.093 7.092v8.908c-0.004 3.915-3.176 7.087-7.090 7.091h-17.819c-1.105 0-2-0.895-2-2s0.895-2 2-2v0h17.817c1.707-0.002 3.090-1.384 3.092-3.090v-8.908c-0.002-1.708-1.386-3.091-3.093-3.092h-18.877l4.237 4.248c0.362 0.362 0.586 0.862 0.586 1.414s-0.224 1.052-0.586 1.414v0z">
            </path>
        </symbol>
        <symbol id="angle-down" viewBox="0 0 32 32">
            <path
                d="M2.013 8.105c0.001 0 0.002 0 0.003 0 0.551 0 1.050 0.224 1.411 0.587l10.231 10.229c0.603 0.603 1.437 0.977 2.357 0.977s1.754-0.373 2.357-0.977l10.215-10.216c0.364-0.377 0.874-0.611 1.439-0.611 1.105 0 2 0.895 2 2 0 0.565-0.234 1.074-0.61 1.438l-0.001 0.001-10.215 10.216c-1.328 1.325-3.161 2.145-5.185 2.145s-3.858-0.82-5.185-2.145l-10.231-10.229c-0.362-0.362-0.586-0.862-0.586-1.415 0-1.105 0.895-2 2-2 0 0 0.001 0 0.001 0h-0z">
            </path>
        </symbol>
        <symbol id="icon-search" viewBox="0 0 32 32">
            <path
                d="M31.008 27.231l-7.58-6.447c-0.784-0.705-1.622-1.029-2.299-0.998 1.789-2.096 2.87-4.815 2.87-7.787 0-6.627-5.373-12-12-12s-12 5.373-12 12 5.373 12 12 12c2.972 0 5.691-1.081 7.787-2.87-0.031 0.677 0.293 1.515 0.998 2.299l6.447 7.58c1.104 1.226 2.907 1.33 4.007 0.23s0.997-2.903-0.23-4.007zM12 20c-4.418 0-8-3.582-8-8s3.582-8 8-8 8 3.582 8 8-3.582 8-8 8z">
            </path>
        </symbol>
    </defs>
</svg>