<svg aria-hidden="true" style="position: absolute; width: 0; height: 0; overflow: hidden;" version="1.1"
    xmlns="http://www.w3.org/2000/svg" xmlns:xlink="http://www.w3.org/1999/xlink">
    <defs>
        <symbol id="rate-icon" viewBox="0 0 181 32">
            <path fill="#ab816c" style="fill: var(--color1, #ab816c)"
                d="M14.732 3.903c0.399-1.228 2.137-1.228 2.536 0l2.025 6.232c0.178 0.549 0.69 0.921 1.268 0.921h6.552c1.292 0 1.829 1.653 0.784 2.412l-5.301 3.851c-0.467 0.339-0.663 0.941-0.484 1.491l2.025 6.232c0.399 1.228-1.007 2.25-2.052 1.491l-5.301-3.851c-0.467-0.339-1.1-0.339-1.567 0l-5.301 3.851c-1.045 0.759-2.451-0.262-2.052-1.491l2.025-6.232c0.178-0.549-0.017-1.151-0.484-1.491l-5.301-3.851c-1.045-0.759-0.508-2.412 0.784-2.412h6.552c0.578 0 1.090-0.372 1.268-0.921l2.025-6.232z">
            </path>
            <path fill="#ab816c" style="fill: var(--color1, #ab816c)"
                d="M164.065 3.903c0.399-1.228 2.137-1.228 2.536 0l2.025 6.232c0.179 0.549 0.689 0.921 1.268 0.921h6.552c1.292 0 1.828 1.653 0.784 2.412l-5.301 3.851c-0.467 0.339-0.663 0.941-0.484 1.491l2.024 6.232c0.4 1.228-1.007 2.25-2.051 1.491l-5.301-3.851c-0.468-0.339-1.1-0.339-1.568 0l-5.301 3.851c-1.044 0.759-2.451-0.262-2.051-1.491l2.024-6.232c0.179-0.549-0.017-1.151-0.484-1.491l-5.301-3.851c-1.044-0.759-0.508-2.412 0.784-2.412h6.552c0.579 0 1.089-0.372 1.268-0.921l2.025-6.232z">
            </path>
            <path fill="#ab816c" style="fill: var(--color1, #ab816c)"
                d="M126.732 3.903c0.399-1.228 2.137-1.228 2.536 0l2.025 6.232c0.178 0.549 0.69 0.921 1.268 0.921h6.552c1.292 0 1.828 1.653 0.784 2.412l-5.301 3.851c-0.467 0.339-0.663 0.941-0.484 1.491l2.024 6.232c0.4 1.228-1.007 2.25-2.051 1.491l-5.302-3.851c-0.467-0.339-1.1-0.339-1.567 0l-5.301 3.851c-1.045 0.759-2.451-0.262-2.052-1.491l2.025-6.232c0.179-0.549-0.017-1.151-0.484-1.491l-5.301-3.851c-1.045-0.759-0.508-2.412 0.784-2.412h6.552c0.578 0 1.090-0.372 1.268-0.921l2.025-6.232z">
            </path>
            <path fill="#ab816c" style="fill: var(--color1, #ab816c)"
                d="M89.399 3.903c0.399-1.228 2.137-1.228 2.536 0l2.025 6.232c0.178 0.549 0.69 0.921 1.268 0.921h6.552c1.292 0 1.829 1.653 0.784 2.412l-5.301 3.851c-0.467 0.339-0.663 0.941-0.484 1.491l2.025 6.232c0.399 1.228-1.007 2.25-2.052 1.491l-5.301-3.851c-0.467-0.339-1.1-0.339-1.567 0l-5.301 3.851c-1.045 0.759-2.451-0.262-2.052-1.491l2.025-6.232c0.179-0.549-0.017-1.151-0.484-1.491l-5.301-3.851c-1.045-0.759-0.508-2.412 0.784-2.412h6.552c0.578 0 1.090-0.372 1.268-0.921l2.025-6.232z">
            </path>
            <path fill="#ab816c" style="fill: var(--color1, #ab816c)"
                d="M52.065 3.903c0.399-1.228 2.137-1.228 2.536 0l2.025 6.232c0.178 0.549 0.69 0.921 1.268 0.921h6.552c1.292 0 1.829 1.653 0.784 2.412l-5.301 3.851c-0.467 0.339-0.663 0.941-0.484 1.491l2.025 6.232c0.399 1.228-1.007 2.25-2.052 1.491l-5.301-3.851c-0.467-0.339-1.1-0.339-1.567 0l-5.301 3.851c-1.045 0.759-2.451-0.262-2.052-1.491l2.025-6.232c0.179-0.549-0.017-1.151-0.484-1.491l-5.301-3.851c-1.045-0.759-0.508-2.412 0.784-2.412h6.552c0.578 0 1.090-0.372 1.268-0.921l2.025-6.232z">
            </path>
        </symbol>
        <symbol id="chat-icon" viewBox="0 0 32 32">
            <path fill="#674d40" style="fill: var(--color1, #674d40)"
                d="M24.62 16.411c0-5.844-6.16-9.674-12.31-9.674-6.175 0-12.31 3.848-12.31 9.674 0 2.204 0.965 4.359 2.718 6.069 0.067 0.066 0.093 0.165 0.067 0.259-0.551 2.017-1.855 3.839-2.39 4.529-0.166 0.215-0.194 0.498-0.071 0.741 0.12 0.237 0.356 0.382 0.621 0.382 0.006 0 0.012-0 0.018-0 2.618-0.065 5.653-0.804 7.529-2.649 0.066-0.064 0.16-0.090 0.252-0.068 1.153 0.273 2.353 0.412 3.566 0.412 6.173-0 12.31-3.847 12.31-9.674zM8.96 24.761c-0.408-0.097-0.828 0.020-1.125 0.312-1.876 1.845-4.939 2.264-6.39 2.357 0.662-0.914 1.74-2.594 2.244-4.444 0.115-0.423-0.006-0.874-0.317-1.177-1.593-1.554-2.435-3.42-2.435-5.398 0-4.817 5.102-8.737 11.373-8.737s11.373 3.919 11.373 8.737-5.102 8.737-11.373 8.737c-1.141 0-2.268-0.13-3.35-0.387z">
            </path>
            <path fill="#674d40" style="fill: var(--color1, #674d40)"
                d="M27.636 24.2c2.733-1.381 4.365-3.735 4.365-6.297 0-3.621-3.273-6.714-7.782-7.356-0.256-0.036-0.494 0.142-0.53 0.398s0.142 0.494 0.398 0.53c4.043 0.575 6.977 3.279 6.977 6.428 0 2.201-1.439 4.242-3.85 5.46-0.469 0.237-0.72 0.761-0.611 1.274 0.229 1.074 0.715 2.069 1.104 2.743-2.768-0.461-3.817-1.789-4.149-2.364-0.205-0.355-0.588-0.575-1.001-0.575-0.001 0-0.003 0-0.004 0h-0.034c-0.52 0-1.040-0.036-1.547-0.107-0.256-0.036-0.493 0.143-0.529 0.399s0.142 0.493 0.399 0.529c0.55 0.077 1.114 0.116 1.677 0.116h0.039c0.078 0 0.15 0.041 0.188 0.106 1.27 2.2 4.188 2.762 5.384 2.901 0.264 0.031 0.516-0.090 0.657-0.316s0.139-0.504-0.005-0.728c-0.36-0.561-1.003-1.684-1.262-2.901-0.021-0.097 0.027-0.197 0.117-0.242z">
            </path>
            <path fill="#674d40" style="fill: var(--color1, #674d40)"
                d="M5.016 14.734c-0.896 0-1.625 0.729-1.625 1.625s0.729 1.625 1.625 1.625 1.625-0.729 1.625-1.625c0-0.896-0.729-1.625-1.625-1.625zM5.016 17.046c-0.379 0-0.687-0.308-0.687-0.687s0.308-0.687 0.687-0.687c0.379 0 0.687 0.308 0.687 0.687s-0.308 0.687-0.687 0.687z">
            </path>
            <path fill="#674d40" style="fill: var(--color1, #674d40)"
                d="M9.65 14.734c-0.896 0-1.625 0.729-1.625 1.625s0.729 1.625 1.625 1.625 1.625-0.729 1.625-1.625c0-0.896-0.729-1.625-1.625-1.625zM9.65 17.046c-0.379 0-0.687-0.308-0.687-0.687s0.308-0.687 0.687-0.687c0.379 0 0.687 0.308 0.687 0.687s-0.308 0.687-0.687 0.687z">
            </path>
            <path fill="#674d40" style="fill: var(--color1, #674d40)"
                d="M14.285 14.734c-0.896 0-1.625 0.729-1.625 1.625s0.729 1.625 1.625 1.625 1.625-0.729 1.625-1.625c0-0.896-0.729-1.625-1.625-1.625zM14.285 17.046c-0.379 0-0.687-0.308-0.687-0.687s0.308-0.687 0.687-0.687c0.379 0 0.687 0.308 0.687 0.687s-0.308 0.687-0.687 0.687z">
            </path>
            <path fill="#674d40" style="fill: var(--color1, #674d40)"
                d="M18.919 14.734c-0.896 0-1.625 0.729-1.625 1.625s0.729 1.625 1.625 1.625 1.625-0.729 1.625-1.625c0-0.896-0.729-1.625-1.625-1.625zM18.919 17.046c-0.379 0-0.687-0.308-0.687-0.687s0.308-0.687 0.687-0.687c0.379 0 0.687 0.308 0.687 0.687s-0.308 0.687-0.687 0.687z">
            </path>
        </symbol>
        <symbol id="chef-hat-icon" viewBox="0 0 32 32">
            <path fill="#674d40" style="fill: var(--color1, #674d40)"
                d="M23.15 9.631c-0.121 0-0.237-0.048-0.323-0.134s-0.134-0.202-0.134-0.323c-0.036-1.751-0.756-3.419-2.007-4.645s-2.933-1.913-4.685-1.913c-1.752 0-3.434 0.687-4.685 1.913s-1.972 2.894-2.007 4.645c0 0.121-0.048 0.238-0.134 0.323s-0.202 0.134-0.323 0.134c-0.121 0-0.238-0.048-0.323-0.134s-0.134-0.202-0.134-0.323c0.031-1.997 0.846-3.902 2.269-5.303s3.34-2.187 5.337-2.187c1.997 0 3.914 0.785 5.337 2.187s2.238 3.306 2.269 5.303c0 0.121-0.048 0.238-0.134 0.323s-0.202 0.134-0.323 0.134z">
            </path>
            <path fill="#674d40" style="fill: var(--color1, #674d40)"
                d="M24.484 19.976c-0.121 0.001-0.238-0.047-0.324-0.132s-0.135-0.201-0.136-0.323c-0.001-0.121 0.047-0.238 0.132-0.324s0.201-0.135 0.323-0.136c1.741-0.010 3.408-0.703 4.644-1.93s1.94-2.889 1.963-4.63c-0.017-1.758-0.731-3.437-1.985-4.67s-2.945-1.917-4.703-1.904c-0.675-0.001-1.346 0.098-1.992 0.295-0.115 0.034-0.239 0.020-0.345-0.037s-0.185-0.153-0.22-0.268c-0.035-0.115-0.024-0.239 0.032-0.345s0.151-0.187 0.265-0.224c0.732-0.223 1.494-0.337 2.26-0.336 2-0.013 3.924 0.768 5.349 2.172s2.235 3.316 2.253 5.316c-0.023 1.981-0.823 3.874-2.228 5.272s-3.301 2.188-5.282 2.202h-0.006z">
            </path>
            <path fill="#674d40" style="fill: var(--color1, #674d40)"
                d="M7.515 19.976h-0.005c-1.981-0.014-3.878-0.805-5.282-2.202s-2.204-3.291-2.228-5.272c0.018-2 0.828-3.912 2.253-5.316s3.349-2.185 5.349-2.172c0.766-0.001 1.527 0.112 2.26 0.336 0.058 0.017 0.112 0.045 0.16 0.083s0.086 0.085 0.115 0.138c0.029 0.053 0.047 0.112 0.053 0.172s-0 0.121-0.018 0.179c-0.018 0.058-0.047 0.112-0.086 0.158s-0.086 0.085-0.14 0.113c-0.054 0.028-0.113 0.045-0.173 0.050s-0.121-0.002-0.179-0.020c-0.646-0.197-1.317-0.296-1.992-0.295-1.758-0.013-3.449 0.672-4.703 1.904s-1.968 2.912-1.985 4.67c0.023 1.741 0.727 3.403 1.963 4.63s2.903 1.92 4.644 1.93c0.060 0 0.119 0.012 0.175 0.036s0.106 0.057 0.148 0.1c0.042 0.043 0.076 0.093 0.098 0.149s0.034 0.115 0.034 0.175c-0 0.060-0.013 0.119-0.036 0.175s-0.057 0.105-0.1 0.148c-0.043 0.042-0.093 0.075-0.149 0.098s-0.115 0.034-0.175 0.034z">
            </path>
            <path fill="#674d40" style="fill: var(--color1, #674d40)"
                d="M24.485 31.348h-16.969c-0.121 0-0.238-0.048-0.323-0.134s-0.134-0.202-0.134-0.323v-11.372c0-0.121 0.048-0.237 0.134-0.323s0.202-0.134 0.323-0.134c0.121 0 0.237 0.048 0.323 0.134s0.134 0.202 0.134 0.323v10.915h16.055v-10.915c0-0.121 0.048-0.237 0.134-0.323s0.202-0.134 0.323-0.134c0.121 0 0.237 0.048 0.323 0.134s0.134 0.202 0.134 0.323v11.372c0 0.121-0.048 0.237-0.134 0.323s-0.202 0.134-0.323 0.134z">
            </path>
            <path fill="#674d40" style="fill: var(--color1, #674d40)"
                d="M27.666 26.918h-16.969c-0.121 0-0.238-0.048-0.323-0.134s-0.134-0.202-0.134-0.323c0-0.121 0.048-0.238 0.134-0.323s0.202-0.134 0.323-0.134h16.969c0.121 0 0.237 0.048 0.323 0.134s0.134 0.202 0.134 0.323c0 0.121-0.048 0.237-0.134 0.323s-0.202 0.134-0.323 0.134z">
            </path>
        </symbol>
        <symbol id="clock-icon" viewBox="0 0 32 32">
            <path fill="#674d40" style="fill: var(--color1, #674d40)"
                d="M16 0c-8.822 0-16 7.178-16 16s7.178 16 16 16c8.822 0 16-7.178 16-16s-7.178-16-16-16zM16 30.933c-8.234 0-14.933-6.699-14.933-14.933s6.699-14.933 14.933-14.933c8.234 0 14.933 6.699 14.933 14.933s-6.699 14.933-14.933 14.933z">
            </path>
            <path fill="#674d40" style="fill: var(--color1, #674d40)"
                d="M16.533 13.878v-5.409c0-0.295-0.239-0.533-0.533-0.533s-0.533 0.238-0.533 0.533v5.409c-0.746 0.194-1.33 0.778-1.524 1.524h-3.809c-0.294 0-0.533 0.238-0.533 0.533s0.239 0.533 0.533 0.533h3.809c0.238 0.917 1.067 1.6 2.058 1.6 1.177 0 2.133-0.957 2.133-2.133 0-0.991-0.683-1.819-1.6-2.058zM16 17.002c-0.588 0-1.067-0.478-1.067-1.067s0.478-1.067 1.067-1.067c0.588 0 1.067 0.478 1.067 1.067s-0.478 1.067-1.067 1.067z">
            </path>
            <path fill="#674d40" style="fill: var(--color1, #674d40)"
                d="M16 5.269c0.294 0 0.533-0.238 0.533-0.533v-0.533c0-0.295-0.239-0.533-0.533-0.533s-0.533 0.238-0.533 0.533v0.533c0 0.295 0.239 0.533 0.533 0.533z">
            </path>
            <path fill="#674d40" style="fill: var(--color1, #674d40)"
                d="M16 26.602c-0.294 0-0.533 0.238-0.533 0.533v0.533c0 0.295 0.239 0.533 0.533 0.533s0.533-0.238 0.533-0.533v-0.533c0-0.295-0.239-0.533-0.533-0.533z">
            </path>
            <path fill="#674d40" style="fill: var(--color1, #674d40)"
                d="M27.733 15.402h-0.533c-0.294 0-0.533 0.238-0.533 0.533s0.239 0.533 0.533 0.533h0.533c0.294 0 0.533-0.238 0.533-0.533s-0.239-0.533-0.533-0.533z">
            </path>
            <path fill="#674d40" style="fill: var(--color1, #674d40)"
                d="M4.8 15.402h-0.533c-0.294 0-0.533 0.238-0.533 0.533s0.239 0.533 0.533 0.533h0.533c0.294 0 0.533-0.238 0.533-0.533s-0.239-0.533-0.533-0.533z">
            </path>
            <path fill="#674d40" style="fill: var(--color1, #674d40)"
                d="M23.919 7.261l-0.377 0.377c-0.209 0.209-0.209 0.546 0 0.754 0.104 0.104 0.241 0.156 0.377 0.156s0.273-0.052 0.377-0.156l0.377-0.377c0.209-0.209 0.209-0.546 0-0.754s-0.546-0.208-0.754 0z">
            </path>
            <path fill="#674d40" style="fill: var(--color1, #674d40)"
                d="M7.703 23.478l-0.377 0.377c-0.209 0.209-0.209 0.546 0 0.754 0.104 0.104 0.241 0.156 0.377 0.156s0.273-0.052 0.377-0.156l0.377-0.377c0.209-0.209 0.209-0.546 0-0.754s-0.546-0.208-0.754 0z">
            </path>
            <path fill="#674d40" style="fill: var(--color1, #674d40)"
                d="M24.297 23.478c-0.209-0.209-0.546-0.209-0.754 0s-0.209 0.546 0 0.754l0.377 0.377c0.104 0.104 0.241 0.156 0.377 0.156s0.273-0.052 0.377-0.156c0.209-0.209 0.209-0.546 0-0.754l-0.377-0.377z">
            </path>
            <path fill="#674d40" style="fill: var(--color1, #674d40)"
                d="M8.080 7.261c-0.209-0.209-0.546-0.209-0.754 0s-0.209 0.546 0 0.754l0.377 0.377c0.104 0.104 0.241 0.156 0.377 0.156s0.273-0.052 0.377-0.156c0.209-0.209 0.209-0.546 0-0.754l-0.377-0.377z">
            </path>
        </symbol>
        <symbol id="close-icon" viewBox="0 0 32 32">
            <path
                d="M30.355 32c0.422 0 0.843-0.16 1.163-0.483 0.643-0.643 0.643-1.685 0-2.328l-28.707-28.707c-0.643-0.643-1.685-0.643-2.328 0s-0.643 1.685 0 2.329l28.707 28.706c0.323 0.321 0.744 0.483 1.165 0.483z">
            </path>
            <path
                d="M1.645 32c0.422 0 0.843-0.16 1.163-0.483l28.709-28.706c0.643-0.643 0.643-1.686 0-2.329s-1.685-0.643-2.329 0l-28.707 28.707c-0.643 0.643-0.643 1.685 0 2.328 0.323 0.321 0.744 0.483 1.163 0.483z">
            </path>
        </symbol>
        <symbol id="empty-star-icon" viewBox="0 0 34 32">
            <path fill="none" stroke="#ab816c" style="stroke: var(--color2, #ab816c)" stroke-linejoin="miter"
                stroke-linecap="butt" stroke-miterlimit="4" stroke-width="1.6842"
                d="M15.901 3.050c0.252-0.776 1.35-0.776 1.602 0l2.51 7.726c0.338 1.041 1.308 1.746 2.403 1.746h8.124c0.816 0 1.155 1.044 0.495 1.523l-6.572 4.775c-0.885 0.643-1.256 1.784-0.918 2.825l2.51 7.726c0.252 0.776-0.636 1.421-1.296 0.941l-6.572-4.775c-0.885-0.643-2.084-0.643-2.97 0l-6.572 4.775c-0.66 0.48-1.548-0.166-1.296-0.941l2.51-7.726c0.338-1.041-0.032-2.181-0.918-2.825l-6.572-4.775c-0.66-0.479-0.321-1.523 0.495-1.523h8.124c1.094 0 2.064-0.705 2.403-1.746l2.51-7.726z">
            </path>
        </symbol>
        <symbol id="facebook-icon" viewBox="0 0 32 32">
            <path
                d="M22.512 0.007l-3.617-0.007c-4.064 0-6.69 3.091-6.69 7.875v3.631h-3.637c-0.314 0-0.569 0.292-0.569 0.653v5.261c0 0.361 0.255 0.652 0.569 0.652h3.637v13.275c0 0.36 0.254 0.652 0.569 0.652h4.745c0.314 0 0.569-0.292 0.569-0.652v-13.275h4.252c0.314 0 0.569-0.292 0.569-0.652l0.002-5.261c0-0.173-0.060-0.339-0.167-0.461s-0.252-0.191-0.402-0.191h-4.254v-3.078c0-1.479 0.307-2.23 1.987-2.23l2.437-0.001c0.314 0 0.568-0.292 0.568-0.652v-4.885c0-0.36-0.254-0.652-0.568-0.652z">
            </path>
        </symbol>
        <symbol id="instagram-icon" viewBox="0 0 32 32">
            <path
                d="M16.316 32c-0.106 0-0.212 0-0.319-0-2.508 0.006-4.826-0.058-7.080-0.195-2.066-0.126-3.953-0.84-5.455-2.065-1.45-1.182-2.44-2.781-2.942-4.75-0.438-1.715-0.461-3.398-0.483-5.026-0.016-1.168-0.033-2.553-0.036-3.96 0.003-1.414 0.020-2.798 0.036-3.966 0.022-1.628 0.045-3.311 0.483-5.026 0.503-1.97 1.493-3.568 2.942-4.75 1.503-1.225 3.389-1.939 5.456-2.065 2.254-0.137 4.572-0.201 7.086-0.195 2.509-0.005 4.826 0.058 7.080 0.195 2.066 0.126 3.953 0.84 5.455 2.065 1.45 1.182 2.44 2.781 2.943 4.75 0.437 1.715 0.461 3.398 0.483 5.026 0.016 1.168 0.033 2.553 0.036 3.96v0.006c-0.003 1.408-0.020 2.792-0.036 3.96-0.022 1.628-0.045 3.311-0.483 5.026-0.503 1.97-1.493 3.568-2.943 4.75-1.502 1.225-3.389 1.939-5.455 2.065-2.159 0.131-4.376 0.195-6.768 0.195zM15.997 29.5c2.468 0.006 4.733-0.056 6.934-0.19 1.563-0.095 2.917-0.602 4.027-1.507 1.026-0.837 1.732-1.991 2.1-3.431 0.364-1.428 0.385-2.96 0.406-4.442 0.016-1.16 0.032-2.535 0.036-3.929-0.004-1.394-0.020-2.769-0.036-3.929-0.020-1.482-0.041-3.015-0.406-4.443-0.367-1.44-1.074-2.594-2.1-3.431-1.11-0.905-2.465-1.412-4.027-1.507-2.201-0.134-4.467-0.196-6.928-0.19-2.467-0.006-4.733 0.056-6.934 0.19-1.563 0.095-2.917 0.602-4.027 1.507-1.026 0.837-1.732 1.991-2.1 3.431-0.364 1.428-0.385 2.96-0.406 4.443-0.016 1.161-0.032 2.537-0.036 3.932 0.003 1.389 0.020 2.765 0.036 3.926 0.020 1.482 0.041 3.015 0.406 4.442 0.367 1.44 1.074 2.594 2.1 3.431 1.11 0.905 2.465 1.412 4.027 1.507 2.201 0.134 4.467 0.197 6.928 0.191zM15.937 23.812c-4.308 0-7.813-3.505-7.813-7.812s3.505-7.813 7.813-7.813c4.308 0 7.813 3.505 7.813 7.813s-3.505 7.812-7.813 7.812zM15.937 10.687c-2.929 0-5.313 2.383-5.313 5.313s2.383 5.312 5.313 5.312c2.93 0 5.313-2.383 5.313-5.312s-2.383-5.313-5.313-5.313zM24.625 5.687c-1.035 0-1.875 0.839-1.875 1.875s0.84 1.875 1.875 1.875c1.036 0 1.875-0.839 1.875-1.875s-0.839-1.875-1.875-1.875z">
            </path>
        </symbol>
        <symbol id="location-icon" viewBox="0 0 25 32">
            <path
                d="M12.571 0c6.932 0 12.571 5.271 12.571 11.75 0 2.564-0.866 5-2.508 7.044l-9.289 11.693c-0.023 0.028-0.059 0.039-0.084 0.064-0.464 0.465-1.134 0.348-1.465-0.064-2.675-3.336-7.578-9.566-9.463-11.916 0 0-0.001-0.002-0.001-0.003l-0.012-0.014c-1.519-1.994-2.322-4.347-2.322-6.804 0-6.479 5.64-11.75 12.571-11.75zM12.571 18.089c3.732 0 6.782-2.851 6.782-6.339s-3.050-6.339-6.782-6.339c-3.732 0-6.782 2.851-6.782 6.339s3.050 6.339 6.782 6.339z">
            </path>
        </symbol>
        <symbol id="burger-menu-icon" viewBox="0 0 60 32">
            <path d="M2 0h56c1.105 0 2 0.895 2 2s-0.895 2-2 2h-56c-1.105 0-2-0.895-2-2s0.895-2 2-2z"></path>
            <path d="M2 14h56c1.105 0 2 0.895 2 2s-0.895 2-2 2h-56c-1.105 0-2-0.895-2-2s0.895-2 2-2z"></path>
            <path d="M2 28h56c1.105 0 2 0.895 2 2s-0.895 2-2 2h-56c-1.105 0-2-0.895-2-2s0.895-2 2-2z"></path>
        </symbol>
        <symbol id="people-icon" viewBox="0 0 32 32">
            <path fill="#674d40" style="fill: var(--color1, #674d40)"
                d="M10.936 1.684c-3.395 0-6.161 2.765-6.161 6.161s2.765 6.161 6.161 6.161c3.395 0 6.161-2.765 6.161-6.161s-2.765-6.161-6.161-6.161zM10.936 12.972c-2.835 0-5.134-2.305-5.134-5.134s2.305-5.134 5.134-5.134c2.835 0 5.134 2.305 5.134 5.134s-2.305 5.134-5.134 5.134z">
            </path>
            <path fill="#674d40" style="fill: var(--color1, #674d40)"
                d="M23.553 4.242c-2.551 0-4.623 2.072-4.623 4.624s2.072 4.624 4.623 4.624c2.551 0 4.624-2.072 4.624-4.624s-2.072-4.624-4.624-4.624zM23.553 12.468c-1.984 0-3.597-1.613-3.597-3.597s1.613-3.597 3.597-3.597c1.984 0 3.597 1.613 3.597 3.597s-1.612 3.597-3.597 3.597z">
            </path>
            <path fill="#674d40" style="fill: var(--color1, #674d40)"
                d="M31.824 20.267c-0.466-2.809-2.211-5.178-5.184-6.419 0 0-1.317 0.995-3.086 0.964-1.934-0.038-3.087-0.964-3.087-0.964s-1.436 0.535-2.595 1.65c-1.071-0.951-2.879-1.726-2.879-1.726s-1.657 1.26-4.063 1.241c-2.526-0.019-4.050-1.241-4.050-1.241s-5.461 1.877-6.614 8.245c0 0-1.235 3.376 1.625 8.422h18.097c0 0 1.285-2.236 1.512-3.597h9.001c2.211-3.351 1.323-6.576 1.323-6.576zM19.351 29.413h-16.825c-2.198-4.176-1.247-7.225-1.247-7.225 0.535-3.194 2.589-5.89 5.524-7.257 2.52 1.48 5.751 1.48 8.271 0 2.935 1.367 4.989 4.063 5.524 7.257-0.006 0 0.907 3.754-1.247 7.225zM29.902 25.816h-8.195c0.315-1.814-0.101-3.798-0.101-3.798-0.372-2.242-1.43-4.264-2.98-5.827 0.529-0.479 1.115-0.876 1.757-1.184 1.934 1.109 4.397 1.109 6.331 0 2.173 1.039 3.698 3.049 4.094 5.43 0 0 0.75 2.545-0.907 5.379z">
            </path>
        </symbol>
        <symbol id="phone-icon" viewBox="0 0 32 32">
            <path
                d="M29.43 19.631c-1.959 0-3.882-0.286-5.705-0.849-0.893-0.285-1.991-0.024-2.536 0.5l-3.598 2.539c-4.172-2.082-6.743-4.483-8.939-8.354l2.636-3.275c0.685-0.639 0.931-1.573 0.636-2.449-0.605-1.713-0.912-3.51-0.912-5.342 0-1.323-1.152-2.4-2.567-2.4h-5.876c-1.416 0-2.568 1.077-2.568 2.4 0 15.168 13.202 27.508 29.43 27.508 1.416 0 2.568-1.077 2.568-2.4v-5.477c0-1.323-1.152-2.4-2.568-2.4z">
            </path>
        </symbol>
        <symbol id="start-icon" viewBox="0 0 34 32">
            <path fill="#ab816c" style="fill: var(--color2, #ab816c)"
                d="M15.24 1.561c0.504-1.552 2.699-1.552 3.204 0l2.558 7.872c0.225 0.694 0.872 1.164 1.602 1.164h8.277c1.632 0 2.31 2.088 0.99 3.047l-6.696 4.865c-0.59 0.429-0.837 1.189-0.612 1.883l2.558 7.872c0.504 1.552-1.272 2.842-2.592 1.883l-6.696-4.865c-0.59-0.429-1.39-0.429-1.98 0l-6.696 4.865c-1.32 0.959-3.096-0.331-2.592-1.883l2.558-7.872c0.225-0.694-0.022-1.454-0.612-1.883l-6.696-4.865c-1.32-0.959-0.642-3.047 0.99-3.047h8.277c0.73 0 1.376-0.47 1.602-1.164l2.558-7.872z">
            </path>
        </symbol>
        <symbol id="twitter-icon" viewBox="0 0 32 32">
            <path
                d="M32 5.441c-1.19 0.583-2.458 0.97-3.78 1.158 1.36-0.908 2.398-2.334 2.886-4.053-1.268 0.845-2.668 1.442-4.16 1.775-1.204-1.433-2.92-2.321-4.792-2.321-3.632 0-6.556 3.295-6.556 7.335 0 0.581 0.044 1.14 0.152 1.672-5.454-0.297-10.28-3.219-13.522-7.671-0.566 1.098-0.898 2.354-0.898 3.707 0 2.54 1.17 4.791 2.914 6.095-1.054-0.022-2.088-0.364-2.964-0.903 0 0.022 0 0.051 0 0.080 0 3.564 2.274 6.524 5.256 7.206-0.534 0.163-1.116 0.241-1.72 0.241-0.42 0-0.844-0.027-1.242-0.125 0.85 2.904 3.262 5.039 6.13 5.109-2.232 1.952-5.066 3.128-8.134 3.128-0.538 0-1.054-0.027-1.57-0.101 2.906 2.095 6.35 3.291 10.064 3.291 12.072 0 18.672-11.178 18.672-20.868 0-0.324-0.010-0.637-0.024-0.948 1.302-1.033 2.396-2.323 3.288-3.807z">
            </path>
        </symbol>
    </defs>
</svg>